<svg width="44" height="44" viewBox="0 0 44 44" fill="none" xmlns="http://www.w3.org/2000/svg">
<path fill-rule="evenodd" clip-rule="evenodd" d="M33.462 6.28285C33.6015 6.20315 33.7596 6.16153 33.9202 6.16215C34.0809 6.16278 34.2386 6.20562 34.3775 6.2864C34.5164 6.36718 34.6316 6.48305 34.7116 6.6224C34.7917 6.76174 34.8336 6.91967 34.8334 7.08035V36.9197C34.8333 37.0802 34.7911 37.2379 34.711 37.377C34.6308 37.5161 34.5156 37.6317 34.3767 37.7123C34.2379 37.7928 34.0803 37.8355 33.9198 37.8361C33.7593 37.8366 33.6014 37.795 33.462 37.7154L29.326 35.354C29.0491 35.1958 28.7356 35.1126 28.4167 35.1126C28.0977 35.1126 27.7843 35.1958 27.5074 35.354L23.4557 37.6677C23.0124 37.9211 22.5106 38.0544 22 38.0544C21.4894 38.0544 20.9877 37.9211 20.5444 37.6677L16.4927 35.354C16.2157 35.1958 15.9023 35.1126 15.5834 35.1126C15.2644 35.1126 14.951 35.1958 14.674 35.354L10.538 37.7172C10.3985 37.7969 10.2405 37.8385 10.0798 37.8379C9.91912 37.8373 9.76143 37.7944 9.62253 37.7136C9.48363 37.6329 9.3684 37.517 9.28839 37.3776C9.20839 37.2383 9.16642 37.0804 9.16669 36.9197V7.08035C9.16642 6.91967 9.20839 6.76174 9.28839 6.6224C9.3684 6.48305 9.48363 6.36718 9.62253 6.2864C9.76143 6.20562 9.91912 6.16278 10.0798 6.16215C10.2405 6.16153 10.3985 6.20315 10.538 6.28285L14.674 8.64785C14.951 8.80605 15.2644 8.88926 15.5834 8.88926C15.9023 8.88926 16.2157 8.80605 16.4927 8.64785L20.5444 6.33235C20.9877 6.07896 21.4894 5.94568 22 5.94568C22.5106 5.94568 23.0124 6.07896 23.4557 6.33235L27.5074 8.64602C27.7843 8.80422 28.0977 8.88743 28.4167 8.88743C28.7356 8.88743 29.0491 8.80422 29.326 8.64602L33.462 6.28285ZM17.4167 16.5C17.1736 16.5 16.9404 16.5966 16.7685 16.7685C16.5966 16.9404 16.5 17.1736 16.5 17.4167C16.5 17.6598 16.5966 17.893 16.7685 18.0649C16.9404 18.2368 17.1736 18.3334 17.4167 18.3334H26.5834C26.8265 18.3334 27.0596 18.2368 27.2315 18.0649C27.4034 17.893 27.5 17.6598 27.5 17.4167C27.5 17.1736 27.4034 16.9404 27.2315 16.7685C27.0596 16.5966 26.8265 16.5 26.5834 16.5H17.4167ZM17.4167 21.0834C17.1736 21.0834 16.9404 21.1799 16.7685 21.3518C16.5966 21.5237 16.5 21.7569 16.5 22C16.5 22.2431 16.5966 22.4763 16.7685 22.6482C16.9404 22.8201 17.1736 22.9167 17.4167 22.9167H26.5834C26.8265 22.9167 27.0596 22.8201 27.2315 22.6482C27.4034 22.4763 27.5 22.2431 27.5 22C27.5 21.7569 27.4034 21.5237 27.2315 21.3518C27.0596 21.1799 26.8265 21.0834 26.5834 21.0834H17.4167ZM17.4167 25.6667C17.1736 25.6667 16.9404 25.7633 16.7685 25.9352C16.5966 26.1071 16.5 26.3402 16.5 26.5834C16.5 26.8265 16.5966 27.0596 16.7685 27.2315C16.9404 27.4034 17.1736 27.5 17.4167 27.5H26.5834C26.8265 27.5 27.0596 27.4034 27.2315 27.2315C27.4034 27.0596 27.5 26.8265 27.5 26.5834C27.5 26.3402 27.4034 26.1071 27.2315 25.9352C27.0596 25.7633 26.8265 25.6667 26.5834 25.6667H17.4167Z" fill="white"/>
</svg>
