<svg width="52" height="52" viewBox="0 0 52 52" fill="none" xmlns="http://www.w3.org/2000/svg">
<path d="M44.9131 38.1238L8.30662 38.1249C7.84377 38.1255 7.36162 38.1538 6.90139 38.1109C4.87533 37.9222 4.97644 36.144 4.97805 34.6898L4.97793 16.7911C4.9785 15.2122 5.20344 13.8495 7.10423 13.7512L7.16328 13.7484C7.94439 13.7157 8.74085 13.7509 9.5236 13.751L43.2094 13.7502C44.9587 13.7485 47.026 13.5496 47.1046 16.0595C47.1512 17.5467 47.1081 19.0482 47.1081 20.5368L47.1105 35.3822C47.11 36.909 46.6359 38.0675 44.9131 38.1238ZM20.9303 17.9485L15.0083 17.9472C14.3496 17.9459 13.9567 17.9001 13.6874 18.6351C12.5724 21.5395 10.2931 20.7168 9.77557 21.3956C9.51323 21.7397 9.63167 23.0802 9.63169 23.511L9.6326 28.7597C9.63332 30.7296 9.40991 30.4209 11.178 30.9004C12.6726 31.3058 13.6963 32.53 13.8841 34.0718H38.1252C38.2907 32.0582 40.3768 30.8633 42.2258 30.6678V21.3245C40.3489 21.0169 38.6532 19.8682 38.1252 17.9485H32.9674H26.9514C26.7335 17.9299 26.5008 17.9461 26.2809 17.9466L20.9303 17.9485Z" fill="url(#paint0_linear_438_271)"/>
<path d="M13.6874 18.6351C13.9567 17.9001 14.3496 17.9459 15.0083 17.9473L20.9303 17.9486C21.0196 17.9912 21.1154 17.9484 21.2004 17.9924C21.1098 18.147 19.3189 18.3234 19.1307 18.3303C17.5389 18.3879 15.5951 17.963 14.1147 18.5409C13.9551 18.6032 13.8525 18.7089 13.6874 18.6351Z" fill="#E2EBCE"/>
<path d="M20.9303 17.9485L26.2809 17.9466C26.5008 17.9461 26.7335 17.9299 26.9515 17.9485C27.3358 18.0357 28.7017 17.8239 28.5036 18.0849C28.5649 18.1409 30.0303 18.1973 30.2404 18.1879C30.6194 18.1707 30.9475 17.9761 31.3177 17.947C31.7185 17.9153 32.6804 18.0254 32.9674 17.9485H38.1253C38.6532 19.8682 40.3489 21.0169 42.2258 21.3244V30.6678C40.3768 30.8633 38.2907 32.0582 38.1253 34.0717H13.8841C13.6963 32.53 12.6726 31.3058 11.178 30.9004C9.40992 30.4209 9.63333 30.7296 9.63261 28.7597L9.63169 23.511C9.63167 23.0801 9.51324 21.7397 9.77558 21.3956C10.2931 20.7168 12.5724 21.5394 13.6874 18.6351C13.8525 18.7088 13.9551 18.6031 14.1147 18.5408C15.5951 17.9629 17.5389 18.3879 19.1307 18.3302C19.3189 18.3234 21.1098 18.1469 21.2004 17.9923C21.1154 17.9483 21.0196 17.9912 20.9303 17.9485ZM25.6901 21.1009C23.0091 21.2821 20.9799 23.5982 21.1528 26.2799C21.3258 28.9615 23.6356 30.9978 26.3178 30.8331C29.0116 30.6678 31.0588 28.3455 30.8852 25.6522C30.7115 22.9589 28.383 20.9189 25.6901 21.1009ZM14.5803 24.3008C13.6972 24.305 12.9862 25.0268 12.9951 25.9098C13.0041 26.7928 13.7296 27.4999 14.6125 27.4863C15.4888 27.4727 16.1896 26.7539 16.1806 25.8775C16.1718 25.0012 15.4567 24.2967 14.5803 24.3008ZM37.2558 24.2858C36.6768 24.3202 36.1611 24.6637 35.9063 25.1848C35.6514 25.7058 35.6967 26.3237 36.0249 26.802C36.3531 27.2803 36.9133 27.5448 37.4912 27.4944C38.3677 27.4179 39.0202 26.6515 38.9558 25.774C38.8914 24.8965 38.1341 24.2335 37.2558 24.2858Z" fill="url(#paint1_linear_438_271)"/>
<path d="M26.9514 17.9486H32.9674C32.6804 18.0255 31.7185 17.9154 31.3177 17.9471C30.9475 17.9762 30.6194 18.1708 30.2403 18.188C30.0303 18.1974 28.5649 18.1409 28.5036 18.085C28.7017 17.824 27.3358 18.0358 26.9514 17.9486Z" fill="#E2EBCE"/>
<path d="M26.3178 30.8331C23.6356 30.9978 21.3258 28.9615 21.1528 26.2799C20.9799 23.5982 23.0091 21.2821 25.6901 21.1009C28.383 20.9189 30.7115 22.9589 30.8852 25.6522C31.0588 28.3455 29.0116 30.6678 26.3178 30.8331Z" fill="#A7C957"/>
<path d="M14.6125 27.4863C13.7296 27.4999 13.0041 26.7927 12.9951 25.9098C12.9862 25.0268 13.6972 24.305 14.5803 24.3008C15.4567 24.2966 16.1718 25.0012 16.1806 25.8775C16.1896 26.7538 15.4888 27.4727 14.6125 27.4863Z" fill="#A7C957"/>
<path d="M37.4912 27.4944C36.9133 27.5449 36.3531 27.2803 36.0249 26.8021C35.6967 26.3238 35.6514 25.7059 35.9063 25.1849C36.1611 24.6638 36.6768 24.3203 37.2558 24.2859C38.1341 24.2335 38.8914 24.8965 38.9558 25.774C39.0202 26.6515 38.3677 27.4179 37.4912 27.4944Z" fill="#A7C957"/>
<defs>
<linearGradient id="paint0_linear_438_271" x1="25.6244" y1="38.6709" x2="26.4695" y2="13.1781" gradientUnits="userSpaceOnUse">
<stop stop-color="#68A642"/>
<stop offset="1" stop-color="#C0DC64"/>
</linearGradient>
<linearGradient id="paint1_linear_438_271" x1="26.5473" y1="34.8026" x2="25.3762" y2="17.5767" gradientUnits="userSpaceOnUse">
<stop stop-color="#BADA80"/>
<stop offset="1" stop-color="#E1ECCA"/>
</linearGradient>
</defs>
</svg>
