<svg width="50" height="50" viewBox="0 0 50 50" fill="none" xmlns="http://www.w3.org/2000/svg">
<path d="M26.1312 33.1876L42.7249 15.7719C43.002 15.4813 43.1565 15.0953 43.1565 14.6938C43.1565 14.2923 43.002 13.9063 42.7249 13.6157L42.7062 13.5969C42.5719 13.4556 42.4103 13.343 42.2311 13.2661C42.0519 13.1892 41.859 13.1495 41.664 13.1495C41.469 13.1495 41.2761 13.1892 41.0969 13.2661C40.9178 13.343 40.7561 13.4556 40.6218 13.5969L24.9968 29.9969L9.37807 13.5969C9.24378 13.4556 9.08213 13.343 8.90297 13.2661C8.7238 13.1892 8.53086 13.1495 8.33588 13.1495C8.1409 13.1495 7.94796 13.1892 7.7688 13.2661C7.58963 13.343 7.42799 13.4556 7.2937 13.5969L7.27494 13.6157C6.99793 13.9063 6.8434 14.2923 6.8434 14.6938C6.8434 15.0953 6.99793 15.4813 7.27494 15.7719L23.8687 33.1876C24.0146 33.3407 24.1901 33.4627 24.3846 33.546C24.579 33.6293 24.7884 33.6722 24.9999 33.6722C25.2115 33.6722 25.4208 33.6293 25.6153 33.546C25.8098 33.4627 25.9853 33.3407 26.1312 33.1876Z" fill="#061A0F"/>
</svg>
