<svg width="69" height="20" viewBox="0 0 69 20" fill="none" xmlns="http://www.w3.org/2000/svg">
<path d="M2 8.75C1.30964 8.75 0.75 9.30964 0.75 10C0.75 10.6904 1.30964 11.25 2 11.25V10V8.75ZM67.8839 10.8839C68.372 10.3957 68.372 9.60427 67.8839 9.11612L59.9289 1.16117C59.4408 0.67301 58.6493 0.67301 58.1612 1.16117C57.673 1.64932 57.673 2.44078 58.1612 2.92893L65.2322 10L58.1612 17.0711C57.673 17.5592 57.673 18.3507 58.1612 18.8388C58.6493 19.327 59.4408 19.327 59.9289 18.8388L67.8839 10.8839ZM2 10V11.25H67V10V8.75H2V10Z" fill="#0FA85F"/>
</svg>
