<svg width="44" height="44" viewBox="0 0 44 44" fill="none" xmlns="http://www.w3.org/2000/svg">
<path d="M11 7.46425C11 6.31814 11.4553 5.21896 12.2657 4.40854C13.0761 3.59811 14.1753 3.14282 15.3214 3.14282H28.6786C29.8247 3.14282 30.9239 3.59811 31.7343 4.40854C32.5447 5.21896 33 6.31814 33 7.46425V36.5357C33 37.6818 32.5447 38.781 31.7343 39.5914C30.9239 40.4018 29.8247 40.8571 28.6786 40.8571H15.3214C14.1753 40.8571 13.0761 40.4018 12.2657 39.5914C11.4553 38.781 11 37.6818 11 36.5357V7.46425ZM19.25 33C18.9374 33 18.6376 33.1241 18.4166 33.3452C18.1956 33.5662 18.0714 33.866 18.0714 34.1785C18.0714 34.4911 18.1956 34.7909 18.4166 35.0119C18.6376 35.2329 18.9374 35.3571 19.25 35.3571H24.75C25.0626 35.3571 25.3624 35.2329 25.5834 35.0119C25.8044 34.7909 25.9286 34.4911 25.9286 34.1785C25.9286 33.866 25.8044 33.5662 25.5834 33.3452C25.3624 33.1241 25.0626 33 24.75 33H19.25Z" fill="white"/>
</svg>
