<svg width="41" height="36" viewBox="0 0 41 36" fill="none" xmlns="http://www.w3.org/2000/svg">
<g filter="url(#filter0_d_438_350)">
<path d="M33.4338 24.75H7.95241C7.10489 24.749 6.29239 24.4218 5.6931 23.8401C5.09381 23.2584 4.75667 22.4698 4.75562 21.6472V8.25902C4.75667 7.43643 5.09381 6.64782 5.6931 6.06616C6.29239 5.4845 7.10489 5.15727 7.95241 5.15625H33.4338C34.2813 5.15727 35.0938 5.4845 35.6931 6.06616C36.2924 6.64782 36.6296 7.43643 36.6306 8.25902V21.6472C36.6296 22.4698 36.2924 23.2584 35.6931 23.8401C35.0938 24.4218 34.2813 24.749 33.4338 24.75Z" fill="white"/>
<path d="M12.5 26.8125H29.5H12.5Z" fill="#0FA85F"/>
<path d="M12.5 26.8125H29.5" stroke="white" stroke-miterlimit="10" stroke-linecap="round"/>
<path d="M21.6348 9.69141H23.5488V16.165H24.4443V17.9355H23.5488V20H21.6758V17.9355H17.2871V16.165L21.6348 9.69141ZM21.6758 16.165V12.7949L19.3789 16.165H21.6758Z" fill="#0FA85F"/>
</g>
<defs>
<filter id="filter0_d_438_350" x="0" y="0" width="42" height="41" filterUnits="userSpaceOnUse" color-interpolation-filters="sRGB">
<feFlood flood-opacity="0" result="BackgroundImageFix"/>
<feColorMatrix in="SourceAlpha" type="matrix" values="0 0 0 0 0 0 0 0 0 0 0 0 0 0 0 0 0 0 127 0" result="hardAlpha"/>
<feOffset dy="4"/>
<feGaussianBlur stdDeviation="2"/>
<feComposite in2="hardAlpha" operator="out"/>
<feColorMatrix type="matrix" values="0 0 0 0 0 0 0 0 0 0 0 0 0 0 0 0 0 0 0.25 0"/>
<feBlend mode="normal" in2="BackgroundImageFix" result="effect1_dropShadow_438_350"/>
<feBlend mode="normal" in="SourceGraphic" in2="effect1_dropShadow_438_350" result="shape"/>
</filter>
</defs>
</svg>
