<svg width="52" height="52" viewBox="0 0 52 52" fill="none" xmlns="http://www.w3.org/2000/svg">
<path d="M22.7253 28.9722C22.3716 29.3574 22.1336 29.8449 21.8747 30.2966L20.9645 31.8871C20.4512 32.7831 19.6137 33.8542 18.4583 32.9088C18.1143 32.6273 17.8864 32.1495 17.6565 31.7758L16.3935 29.7107C15.5187 28.2624 15.8828 28.3841 14.1873 28.3856L11.0179 28.3884C10.4054 28.3888 9.62186 28.453 9.03551 28.3261C6.15159 27.702 6.53725 24.8778 6.53782 22.6724L6.53684 15.025C6.53276 12.5084 7.09883 10.6964 9.97584 10.6713L27.1908 10.6697C28.9764 10.6698 30.9496 10.4612 31.5447 12.7471C31.7453 13.5171 31.6643 14.5524 31.6642 15.3558L31.6633 18.6438C31.6448 20.2534 31.6631 21.8651 31.663 23.4748C31.6629 25.3065 31.9237 27.636 29.5488 28.2275C28.6275 28.4569 25.2902 28.3363 24.1615 28.3211C23.5211 28.3125 23.0361 28.3497 22.7253 28.9722ZM14.2674 16.2969C13.5222 16.391 13.1142 16.951 13.2441 17.6963C13.4581 18.9242 14.9501 18.646 15.8516 18.6455L22.957 18.6441C23.6384 18.6442 24.3325 18.6734 25.0124 18.6438C26.1216 18.3752 26.3874 17.0014 25.332 16.4372C24.846 16.1774 23.6692 16.2968 23.1232 16.2967L16.2385 16.2968C15.5827 16.2968 14.9226 16.2774 14.2674 16.2969ZM19.2139 20.3869L16.0099 20.3862C15.4096 20.3863 14.7158 20.3216 14.1296 20.4444C13.1918 20.6408 12.9194 21.914 13.6349 22.5118C14.0688 22.8744 14.8698 22.7475 15.3994 22.7477L18.6686 22.7488C19.2283 22.7487 19.8661 22.807 20.4143 22.7041C21.5697 22.4872 22.0876 20.151 19.2139 20.3869ZM23.8306 20.3869C22.547 20.483 22.1367 21.781 23.0526 22.4954C23.5369 22.8732 24.261 22.7628 24.8383 22.7477C25.9549 22.6453 26.4745 21.3183 25.5749 20.6477C25.1189 20.3078 24.3724 20.3905 23.8306 20.3869Z" fill="url(#paint0_linear_438_254)"/>
<path d="M25.0124 18.6438C24.3324 18.6734 23.6384 18.6442 22.957 18.6441L15.8516 18.6456C14.9501 18.6461 13.458 18.9243 13.244 17.6964C13.1141 16.951 13.5222 16.3911 14.2674 16.2969C14.9226 16.2774 15.5827 16.2968 16.2385 16.2968L23.1232 16.2967C23.6692 16.2968 24.8459 16.1774 25.332 16.4372C26.3873 17.0015 26.1216 18.3752 25.0124 18.6438Z" fill="#D2E4A9"/>
<path d="M31.6633 18.6438C31.7102 18.9696 32.1138 18.8199 32.3735 18.8197L41.6487 18.8239C42.3231 18.8235 43.0817 18.7619 43.7322 18.9562C45.664 19.5331 45.448 21.548 45.4471 23.0823L45.447 31.9109C45.4468 33.5801 45.7808 35.947 43.4977 36.3634C42.6112 36.5251 37.8117 36.33 37.5476 36.4997C37.0638 36.8104 35.7175 40.1953 34.908 40.838C34.5852 41.0945 34.0919 41.1693 33.6955 41.0732C32.8651 40.8718 32.6169 40.096 32.247 39.4311L31.2976 37.7631C31.054 37.3263 30.8204 36.8089 30.4877 36.435L27.041 36.4358C26.3517 36.4357 25.4382 36.5063 24.7787 36.3526C22.3774 35.7928 22.7254 33.429 22.7257 31.574C22.7259 30.7148 22.6501 29.8276 22.7253 28.9722C23.0361 28.3497 23.5211 28.3124 24.1615 28.3211C25.2902 28.3363 28.6275 28.4569 29.5488 28.2275C31.9237 27.636 31.6629 25.3065 31.663 23.4748C31.6631 21.8651 31.6448 20.2534 31.6633 18.6438Z" fill="url(#paint1_linear_438_254)"/>
<path d="M15.3994 22.7477C14.8698 22.7475 14.0688 22.8744 13.6349 22.5118C12.9194 21.914 13.1917 20.6408 14.1296 20.4444C14.7158 20.3216 15.4096 20.3863 16.0099 20.3862L19.2139 20.3869C22.0876 20.151 21.5697 22.4872 20.4143 22.7041C19.8661 22.8069 19.2283 22.7487 18.6686 22.7488L15.3994 22.7477Z" fill="#D2E4A9"/>
<path d="M24.8383 22.7477C24.261 22.7627 23.5369 22.8731 23.0526 22.4953C22.1367 21.7809 22.547 20.483 23.8306 20.3869C24.3724 20.3905 25.119 20.3078 25.5749 20.6477C26.4745 21.3183 25.9549 22.6452 24.8383 22.7477Z" fill="#D2E4A9"/>
<defs>
<linearGradient id="paint0_linear_438_254" x1="18.0277" y1="33.0455" x2="19.8689" y2="9.99098" gradientUnits="userSpaceOnUse">
<stop stop-color="#5AA63B"/>
<stop offset="1" stop-color="#A2CA42"/>
</linearGradient>
<linearGradient id="paint1_linear_438_254" x1="33.9863" y1="41.0327" x2="34.1628" y2="18.7972" gradientUnits="userSpaceOnUse">
<stop stop-color="#9CCA7F"/>
<stop offset="1" stop-color="#D8E7AE"/>
</linearGradient>
</defs>
</svg>
