<svg width="52" height="52" viewBox="0 0 52 52" fill="none" xmlns="http://www.w3.org/2000/svg">
<path d="M16.8385 15.5608C16.0143 15.3611 15.0007 15.7797 14.9137 15.7464C15.8897 12.3925 17.2687 9.9898 20.5066 8.21032C25.9844 5.19981 32.9136 7.13758 35.9215 12.6423C36.5048 13.71 36.7815 14.874 37.0798 16.0409C36.9185 16.0124 36.7542 15.8555 36.5952 15.792C36.1052 15.5966 35.5819 15.6273 35.0645 15.6394C35.024 15.3091 34.9051 15.0076 34.7744 14.7037C32.6895 9.85504 27.1956 7.43977 22.2889 9.57213C19.391 10.8315 17.9423 12.7539 16.8385 15.5608Z" fill="#C9DB94"/>
<path d="M18.4499 16.9684C19.0964 14.6943 20.0646 12.9097 22.2506 11.6957C26.5683 9.29779 31.5529 11.4273 33.2419 15.9581C33.3681 16.2966 33.4732 16.6402 33.6255 16.9684C33.285 17.5656 33.4713 21.1756 33.6255 21.837C33.3883 23.168 33.0012 23.7104 32.3643 24.8332C32.8362 24.8328 33.3122 24.8185 33.7836 24.8332C33.0614 24.9814 31.6013 24.7949 30.7741 24.8332C30.1357 24.6135 28.215 24.5572 27.7434 24.7785C26.9497 25.1509 26.9362 26.3747 27.8391 26.6339C28.4642 26.8133 29.5874 26.5824 29.9371 26.688C25.8879 29.0412 21.1749 27.5296 18.8815 23.5155C18.6178 23.0541 18.4175 22.5662 18.1916 22.0864C18.6459 21.1459 18.5378 20.4409 18.5389 19.4168C18.5399 18.6105 18.6302 17.7593 18.4499 16.9684Z" fill="url(#paint0_linear_438_279)"/>
<path d="M14.9138 15.7464C15.0007 15.7797 16.0143 15.3611 16.8386 15.5609C17.6123 15.8225 18.1215 16.2268 18.4499 16.9684C18.6302 17.7593 18.5399 18.6106 18.5389 19.4168C18.5378 20.4409 18.6459 21.1459 18.1916 22.0864C16.7948 23.667 14.4265 23.4127 13.9523 21.3975C13.7806 20.6683 13.7562 17.4772 14.0693 16.7996C14.2727 16.3592 14.6928 16.1503 14.9138 15.7464Z" fill="#7BAB3B"/>
<path d="M35.0645 15.6394C35.5819 15.6272 36.1052 15.5965 36.5952 15.7919C36.7542 15.8554 36.9185 16.0123 37.0798 16.0409C38.3259 17.6266 38.0334 17.5016 38.0327 19.5899C38.0324 20.8534 38.2283 21.8922 37.0925 22.7528C37.0294 22.8008 36.9478 22.8403 36.8953 22.899C36.343 23.1793 35.7126 23.2862 35.1039 23.1154L35.0692 23.1404L35.0645 23.2125C35.0206 23.0507 34.0618 22.6175 33.6255 21.8369C33.4712 21.1756 33.285 17.5655 33.6255 16.9683C34.0683 15.9372 34.6709 16.0912 35.0645 15.6394Z" fill="#7BAB3B"/>
<path d="M35.0645 23.2126L35.0692 23.1405L35.1039 23.1155C35.7126 23.2863 36.343 23.1794 36.8953 22.899C36.8731 26.0003 35.7882 26.6896 32.8214 26.6891L30.667 26.688L30.633 26.6764C30.6339 26.6525 31.0185 26.3452 31.0646 26.2819C31.433 25.7775 31.255 25.1801 30.774 24.8332C31.6013 24.7949 33.0613 24.9814 33.7835 24.8332C34.8084 24.8265 35.1198 24.1386 35.0645 23.2126Z" fill="#A7C957"/>
<path d="M29.9371 26.6879C29.5874 26.5823 28.4642 26.8133 27.8391 26.6338C26.9362 26.3746 26.9497 25.1508 27.7434 24.7785C28.215 24.5571 30.1357 24.6134 30.7741 24.8331C31.2551 25.18 31.433 25.7774 31.0646 26.2818C31.0185 26.3451 30.6339 26.6524 30.633 26.6762L30.667 26.6879C30.4754 26.7176 30.1246 26.7357 29.9371 26.6879Z" fill="#D4DDAC"/>
<path d="M29.564 30.3236C32.98 30.3183 35.8175 30.3498 38.4067 32.9493C40.4589 35.01 41.0351 37.4574 41.0313 40.2385L41.0333 41.5713C41.0343 43.7105 40.2369 44.5628 38.0673 44.5633L13.8188 44.5623C11.1493 44.5425 10.833 42.6416 10.9885 40.4735C10.6905 35.1195 13.9052 30.7503 19.4961 30.3572C20.4689 30.2887 21.4591 30.3219 22.4343 30.3236C24.5549 32.4295 27.4524 32.4422 29.564 30.3236Z" fill="url(#paint1_linear_438_279)"/>
<defs>
<linearGradient id="paint0_linear_438_279" x1="25.2949" y1="27.7271" x2="26.7635" y2="10.7912" gradientUnits="userSpaceOnUse">
<stop stop-color="#B8CA7C"/>
<stop offset="1" stop-color="#C9DB94"/>
</linearGradient>
<linearGradient id="paint1_linear_438_279" x1="26.0594" y1="44.7274" x2="25.8428" y2="30.2334" gradientUnits="userSpaceOnUse">
<stop stop-color="#639B22"/>
<stop offset="1" stop-color="#B0CD72"/>
</linearGradient>
</defs>
</svg>
